<svg width="50" height="40" viewBox="0 0 50 40" fill="none" xmlns="http://www.w3.org/2000/svg">
<path d="M21.125 28.75C22.125 29.75 23.4167 30.2396 25 30.2188C26.5833 30.1979 27.75 29.625 28.5 28.5L42.5 7.5L21.5 21.5C20.375 22.25 19.7812 23.3958 19.7188 24.9375C19.6562 26.4792 20.125 27.75 21.125 28.75ZM25 0C27.4583 0 29.8229 0.34375 32.0938 1.03125C34.3646 1.71875 36.5 2.75 38.5 4.125L33.75 7.125C32.375 6.41667 30.9479 5.88542 29.4688 5.53125C27.9896 5.17708 26.5 5 25 5C19.4583 5 14.7396 6.94792 10.8438 10.8438C6.94792 14.7396 5 19.4583 5 25C5 26.75 5.23958 28.4792 5.71875 30.1875C6.19792 31.8958 6.875 33.5 7.75 35H42.25C43.2083 33.4167 43.9062 31.7708 44.3438 30.0625C44.7812 28.3542 45 26.5833 45 24.75C45 23.25 44.8229 21.7917 44.4688 20.375C44.1146 18.9583 43.5833 17.5833 42.875 16.25L45.875 11.5C47.125 13.4583 48.1146 15.5417 48.8438 17.75C49.5729 19.9583 49.9583 22.25 50 24.625C50.0417 27 49.7708 29.2708 49.1875 31.4375C48.6042 33.6042 47.75 35.6667 46.625 37.625C46.1667 38.375 45.5417 38.9583 44.75 39.375C43.9583 39.7917 43.125 40 42.25 40H7.75C6.875 40 6.04167 39.7917 5.25 39.375C4.45833 38.9583 3.83333 38.375 3.375 37.625C2.29167 35.75 1.45833 33.7604 0.875 31.6562C0.291667 29.5521 0 27.3333 0 25C0 21.5417 0.65625 18.3021 1.96875 15.2812C3.28125 12.2604 5.07292 9.61458 7.34375 7.34375C9.61458 5.07292 12.2708 3.28125 15.3125 1.96875C18.3542 0.65625 21.5833 0 25 0Z" fill="currentColor"/>
</svg>
