<svg width="45" height="45" viewBox="0 0 45 45" fill="none" xmlns="http://www.w3.org/2000/svg">
<path d="M15 30V15H30V30H15ZM20 25H25V20H20V25ZM15 45V40H10C8.625 40 7.44792 39.5104 6.46875 38.5312C5.48958 37.5521 5 36.375 5 35V30H0V25H5V20H0V15H5V10C5 8.625 5.48958 7.44792 6.46875 6.46875C7.44792 5.48958 8.625 5 10 5H15V0H20V5H25V0H30V5H35C36.375 5 37.5521 5.48958 38.5312 6.46875C39.5104 7.44792 40 8.625 40 10V15H45V20H40V25H45V30H40V35C40 36.375 39.5104 37.5521 38.5312 38.5312C37.5521 39.5104 36.375 40 35 40H30V45H25V40H20V45H15ZM35 35V10H10V35H35Z" fill="currentColor"/>
</svg>
