<svg width="59" height="47" viewBox="0 0 59 47" fill="none" xmlns="http://www.w3.org/2000/svg">
<path d="M53.9014 18.5004C55.1514 20.4587 56.141 22.5421 56.8701 24.7504C57.5993 26.9587 57.9847 29.2504 58.0264 31.6254C58.068 34.0004 57.7972 36.2712 57.2139 38.4379C56.6305 40.6046 55.7764 42.6671 54.6514 44.6254C54.193 45.3754 53.568 45.9587 52.7764 46.3754C51.9847 46.7921 51.1514 47.0004 50.2764 47.0004H15.7764C14.9014 47.0004 14.068 46.7921 13.2764 46.3754C12.4847 45.9587 11.8597 45.3754 11.4014 44.6254C10.318 42.7504 9.4847 40.7608 8.90137 38.6566C8.31804 36.5525 8.02637 34.3337 8.02637 32.0004C8.02637 31.029 8.08004 30.075 8.1836 29.1381L15.9697 19.9301L16.6201 20.4799C14.2239 23.8137 13.0264 27.6542 13.0264 32.0004C13.0264 33.7504 13.266 35.4796 13.7451 37.1879C14.2243 38.8962 14.9014 40.5004 15.7764 42.0004H50.2764C51.2347 40.4171 51.9326 38.7712 52.3701 37.0629C52.8076 35.3546 53.0264 33.5837 53.0264 31.7504C53.0264 30.2504 52.8493 28.7921 52.4951 27.3754C52.141 25.9587 51.6097 24.5837 50.9014 23.2504L53.9014 18.5004Z" fill="currentColor"/>
<path d="M36.5264 35.5004C35.7764 36.6254 34.6097 37.1983 33.0264 37.2191C31.443 37.24 30.1514 36.7504 29.1514 35.7504C28.1514 34.7504 27.6826 33.4796 27.7451 31.9379C27.8076 30.3962 28.4014 29.2504 29.5264 28.5004L50.5264 14.5004L36.5264 35.5004Z" fill="currentColor"/>
<path d="M27.3916 7.63417C27.7181 7.9766 28.1229 8.24141 28.5752 8.3998L24.3926 13.2992L20.7764 10.2406C21.5979 9.77631 22.4518 9.35193 23.3389 8.96914C24.6547 8.40135 26.0056 7.95634 27.3916 7.63417Z" fill="currentColor"/>
<path d="M46.5264 11.1254L46.4912 11.1469L46.4873 11.099C46.5003 11.1079 46.5134 11.1165 46.5264 11.1254Z" fill="currentColor"/>
<path d="M3.37725 30.1767L0 27.3208L15.0862 9.35833L24.7355 17.5181L35.3525 5.08531L29.5646 5.56941L29.1922 1.11715L42.549 0L43.6661 13.3568L39.2139 13.7292L38.7298 7.94123L25.2662 23.8626L15.6169 15.7028L3.37725 30.1767Z" fill="#444443"/>
<path d="M3.37725 30.1767L0 27.3208L15.0862 9.35833L24.7355 17.5181L35.3525 5.08531L29.5646 5.56941L29.1922 1.11715L42.549 0L43.6661 13.3568L39.2139 13.7292L38.7298 7.94123L25.2662 23.8626L15.6169 15.7028L3.37725 30.1767Z" fill="currentColor"/>
</svg>
