<svg width="55" height="49" viewBox="0 0 55 49" fill="none" xmlns="http://www.w3.org/2000/svg">
<path d="M46.3584 9.56679C46.7865 9.79728 47.1864 10.0979 47.5576 10.4691C48.5368 11.4483 49.0264 12.6254 49.0264 14.0004V19.0004H54.0264V24.0004H49.0264V29.0004H54.0264V34.0004H49.0264V39.0004C49.0264 40.3754 48.5368 41.5525 47.5576 42.5316C46.5785 43.5108 45.4014 44.0004 44.0264 44.0004H39.0264V49.0004H34.0264V44.0004H29.0264V49.0004H24.0264V44.0004H19.0264C17.6514 44.0004 16.4743 43.5108 15.4951 42.5316C14.516 41.5525 14.0264 40.3754 14.0264 39.0004V34.0004H9.02637V29.0004H14.0264V24.0004H12.5283L15.9697 19.9301L19.0264 22.5141V39.0004H44.0264V16.3334C45.6211 16.1413 46.7902 14.7207 46.6553 13.1068L46.3584 9.56679Z" fill="currentColor"/>
<path d="M39.0264 34.0004H24.0264V26.5912C24.4893 26.8014 25.0014 26.895 25.5166 26.8519C26.3093 26.7855 27.043 26.4066 27.5566 25.7992L29.0264 24.0609V29.0004H34.0264V24.0004H29.0781L33.3066 19.0004H39.0264V34.0004Z" fill="currentColor"/>
<path d="M26.5752 5.81972C26.6771 7.03667 27.4926 8.02068 28.5752 8.3998L24.3926 13.2992L19.3096 9.00039H24.0264V4.00039H26.4229L26.5752 5.81972Z" fill="currentColor"/>
<path d="M3.37725 30.1767L0 27.3208L15.0862 9.35833L24.7355 17.5181L35.3525 5.08531L29.5646 5.56941L29.1922 1.11715L42.549 0L43.6661 13.3568L39.2139 13.7292L38.7298 7.94123L25.2662 23.8626L15.6169 15.7028L3.37725 30.1767Z" fill="#444443"/>
<path d="M3.37725 30.1767L0 27.3208L15.0862 9.35833L24.7355 17.5181L35.3525 5.08531L29.5646 5.56941L29.1922 1.11715L42.549 0L43.6661 13.3568L39.2139 13.7292L38.7298 7.94123L25.2662 23.8626L15.6169 15.7028L3.37725 30.1767Z" fill="currentColor"/>
<path d="M3.37725 30.1767L0 27.3208L15.0862 9.35833L24.7355 17.5181L35.3525 5.08531L29.5646 5.56941L29.1922 1.11715L42.549 0L43.6661 13.3568L39.2139 13.7292L38.7298 7.94123L25.2662 23.8626L15.6169 15.7028L3.37725 30.1767Z" fill="#444443"/>
<path d="M3.37725 30.1767L0 27.3208L15.0862 9.35833L24.7355 17.5181L35.3525 5.08531L29.5646 5.56941L29.1922 1.11715L42.549 0L43.6661 13.3568L39.2139 13.7292L38.7298 7.94123L25.2662 23.8626L15.6169 15.7028L3.37725 30.1767Z" fill="currentColor"/>
</svg>
