<svg width="45" height="45" viewBox="0 0 45 45" fill="none" xmlns="http://www.w3.org/2000/svg">
<path d="M11.25 7.10526C10.2083 7.10526 9.32292 7.45065 8.59375 8.14145C7.86457 8.83224 7.5 9.67105 7.5 10.6579C7.5 11.6447 7.86457 12.4835 8.59375 13.1743C9.32292 13.8651 10.2083 14.2105 11.25 14.2105C12.2917 14.2105 13.1771 13.8651 13.9062 13.1743C14.6354 12.4835 15 11.6447 15 10.6579C15 9.67105 14.6354 8.83224 13.9062 8.14145C13.1771 7.45065 12.2917 7.10526 11.25 7.10526ZM11.25 30.7895C10.2083 30.7895 9.32292 31.1348 8.59375 31.8257C7.86457 32.5165 7.5 33.3552 7.5 34.3421C7.5 35.329 7.86457 36.1677 8.59375 36.8586C9.32292 37.5494 10.2083 37.8947 11.25 37.8947C12.2917 37.8947 13.1771 37.5494 13.9062 36.8586C14.6354 36.1677 15 35.329 15 34.3421C15 33.3552 14.6354 32.5165 13.9062 31.8257C13.1771 31.1348 12.2917 30.7895 11.25 30.7895ZM2.5 0H42.5C43.2082 0 43.802 0.226974 44.2812 0.680921C44.7605 1.13487 45 1.69737 45 2.36842V18.9474C45 19.6184 44.7605 20.1809 44.2812 20.6349C43.802 21.0888 43.2082 21.3158 42.5 21.3158H2.5C1.79167 21.3158 1.19792 21.0888 0.71875 20.6349C0.239583 20.1809 0 19.6184 0 18.9474V2.36842C0 1.69737 0.239583 1.13487 0.71875 0.680921C1.19792 0.226974 1.79167 0 2.5 0ZM5 4.73684V16.5789H40V4.73684H5ZM2.5 23.6842H42.5C43.2082 23.6842 43.802 23.9111 44.2812 24.3651C44.7605 24.8192 45 25.3817 45 26.0526V42.6316C45 43.3026 44.7605 43.8651 44.2812 44.3191C43.802 44.7731 43.2082 45 42.5 45H2.5C1.79167 45 1.19792 44.7731 0.71875 44.3191C0.239583 43.8651 0 43.3026 0 42.6316V26.0526C0 25.3817 0.239583 24.8192 0.71875 24.3651C1.19792 23.9111 1.79167 23.6842 2.5 23.6842ZM5 28.4211V40.2632H40V28.4211H5Z" fill="currentColor"/>
</svg>
