<svg width="80" height="80" viewBox="0 0 80 80" fill="none" xmlns="http://www.w3.org/2000/svg">
<path d="M20 12.6316C18.1481 12.6316 16.5741 13.2456 15.2778 14.4737C13.9815 15.7018 13.3333 17.193 13.3333 18.9474C13.3333 20.7018 13.9815 22.193 15.2778 23.4211C16.5741 24.6491 18.1481 25.2632 20 25.2632C21.8519 25.2632 23.4259 24.6491 24.7222 23.4211C26.0185 22.193 26.6667 20.7018 26.6667 18.9474C26.6667 17.193 26.0185 15.7018 24.7222 14.4737C23.4259 13.2456 21.8519 12.6316 20 12.6316ZM20 54.7368C18.1481 54.7368 16.5741 55.3507 15.2778 56.5789C13.9815 57.8072 13.3333 59.2981 13.3333 61.0526C13.3333 62.8072 13.9815 64.2981 15.2778 65.5263C16.5741 66.7545 18.1481 67.3684 20 67.3684C21.8519 67.3684 23.4259 66.7545 24.7222 65.5263C26.0185 64.2981 26.6667 62.8072 26.6667 61.0526C26.6667 59.2981 26.0185 57.8072 24.7222 56.5789C23.4259 55.3507 21.8519 54.7368 20 54.7368ZM4.44444 0H75.5556C76.8147 0 77.8702 0.403509 78.7222 1.21053C79.5742 2.01755 80 3.01755 80 4.21053V33.6842C80 34.8772 79.5742 35.8772 78.7222 36.6842C77.8702 37.4912 76.8147 37.8947 75.5556 37.8947H4.44444C3.18519 37.8947 2.12963 37.4912 1.27778 36.6842C0.425926 35.8772 0 34.8772 0 33.6842V4.21053C0 3.01755 0.425926 2.01755 1.27778 1.21053C2.12963 0.403509 3.18519 0 4.44444 0ZM8.88889 8.42105V29.4737H71.1111V8.42105H8.88889ZM4.44444 42.1053H75.5556C76.8147 42.1053 77.8702 42.5086 78.7222 43.3158C79.5742 44.123 80 45.123 80 46.3158V75.7895C80 76.9823 79.5742 77.9823 78.7222 78.7895C77.8702 79.5966 76.8147 80 75.5556 80H4.44444C3.18519 80 2.12963 79.5966 1.27778 78.7895C0.425926 77.9823 0 76.9823 0 75.7895V46.3158C0 45.123 0.425926 44.123 1.27778 43.3158C2.12963 42.5086 3.18519 42.1053 4.44444 42.1053ZM8.88889 50.5263V71.5789H71.1111V50.5263H8.88889Z" fill="currentColor" fill-opacity="0.5"/>
</svg>
