<svg width="91" height="23" viewBox="0 0 91 23" fill="none" xmlns="http://www.w3.org/2000/svg">
<path d="M18.0254 18V1.2H21.1934V15.12H28.8734V18H18.0254Z" fill="#A9C7FF"/>
<path d="M33.0252 18.336C32.1772 18.336 31.4172 18.192 30.7452 17.904C30.0732 17.6 29.5372 17.168 29.1372 16.608C28.7532 16.032 28.5612 15.336 28.5612 14.52C28.5612 13.704 28.7532 13.024 29.1372 12.48C29.5372 11.92 30.0812 11.504 30.7692 11.232C31.4732 10.944 32.2732 10.8 33.1692 10.8H36.4332V10.128C36.4332 9.568 36.2572 9.112 35.9052 8.76C35.5532 8.392 34.9932 8.208 34.2252 8.208C33.4732 8.208 32.9132 8.384 32.5452 8.736C32.1772 9.072 31.9372 9.512 31.8252 10.056L29.0412 9.12C29.2332 8.512 29.5372 7.96 29.9532 7.464C30.3852 6.952 30.9532 6.544 31.6572 6.24C32.3772 5.92 33.2492 5.76 34.2732 5.76C35.8412 5.76 37.0812 6.152 37.9932 6.936C38.9052 7.72 39.3612 8.856 39.3612 10.344V14.784C39.3612 15.264 39.5852 15.504 40.0332 15.504H40.9932V18H38.9772C38.3852 18 37.8972 17.856 37.5132 17.568C37.1292 17.28 36.9372 16.896 36.9372 16.416V16.392H36.4812C36.4172 16.584 36.2732 16.84 36.0492 17.16C35.8252 17.464 35.4732 17.736 34.9932 17.976C34.5132 18.216 33.8572 18.336 33.0252 18.336ZM33.5532 15.888C34.4012 15.888 35.0892 15.656 35.6172 15.192C36.1612 14.712 36.4332 14.08 36.4332 13.296V13.056H33.3852C32.8252 13.056 32.3852 13.176 32.0652 13.416C31.7452 13.656 31.5852 13.992 31.5852 14.424C31.5852 14.856 31.7532 15.208 32.0892 15.48C32.4252 15.752 32.9132 15.888 33.5532 15.888Z" fill="#A9C7FF"/>
<path d="M48.5562 18.336C47.4842 18.336 46.6602 18.152 46.0842 17.784C45.5082 17.416 45.0842 17.008 44.8122 16.56H44.3802V18H41.4042V1.2H44.4282V7.464H44.8602C45.0362 7.176 45.2682 6.904 45.5562 6.648C45.8602 6.392 46.2522 6.184 46.7322 6.024C47.2282 5.848 47.8362 5.76 48.5562 5.76C49.5162 5.76 50.4042 6 51.2202 6.48C52.0362 6.944 52.6922 7.632 53.1882 8.544C53.6842 9.456 53.9322 10.56 53.9322 11.856V12.24C53.9322 13.536 53.6842 14.64 53.1882 15.552C52.6922 16.464 52.0362 17.16 51.2202 17.64C50.4042 18.104 49.5162 18.336 48.5562 18.336ZM47.6442 15.696C48.5722 15.696 49.3482 15.4 49.9722 14.808C50.5962 14.2 50.9082 13.32 50.9082 12.168V11.928C50.9082 10.776 50.5962 9.904 49.9722 9.312C49.3642 8.704 48.5882 8.4 47.6442 8.4C46.7162 8.4 45.9402 8.704 45.3162 9.312C44.6922 9.904 44.3802 10.776 44.3802 11.928V12.168C44.3802 13.32 44.6922 14.2 45.3162 14.808C45.9402 15.4 46.7162 15.696 47.6442 15.696Z" fill="#A9C7FF"/>
<path d="M54.8129 18V1.2H65.6129V4.08H57.9809V8.088H64.9409V10.968H57.9809V15.12H65.7569V18H54.8129Z" fill="#A9C7FF"/>
<path d="M67.694 22.8V20.16H74.174C74.622 20.16 74.846 19.92 74.846 19.44V16.44H74.414C74.286 16.712 74.086 16.984 73.814 17.256C73.542 17.528 73.174 17.752 72.71 17.928C72.246 18.104 71.654 18.192 70.934 18.192C70.006 18.192 69.19 17.984 68.486 17.568C67.798 17.136 67.262 16.544 66.878 15.792C66.494 15.04 66.302 14.176 66.302 13.2V6.096H69.326V12.96C69.326 13.856 69.542 14.528 69.974 14.976C70.422 15.424 71.054 15.648 71.87 15.648C72.798 15.648 73.518 15.344 74.03 14.736C74.542 14.112 74.798 13.248 74.798 12.144V6.096H77.822V20.112C77.822 20.928 77.582 21.576 77.102 22.056C76.622 22.552 75.982 22.8 75.182 22.8H67.694Z" fill="#A9C7FF"/>
<path d="M84.811 18.336C83.627 18.336 82.579 18.088 81.667 17.592C80.771 17.08 80.067 16.368 79.555 15.456C79.059 14.528 78.811 13.44 78.811 12.192V11.904C78.811 10.656 79.059 9.576 79.555 8.664C80.051 7.736 80.747 7.024 81.643 6.528C82.539 6.016 83.579 5.76 84.763 5.76C85.931 5.76 86.947 6.024 87.811 6.552C88.675 7.064 89.347 7.784 89.827 8.712C90.307 9.624 90.547 10.688 90.547 11.904V12.936H81.883C81.915 13.752 82.219 14.416 82.795 14.928C83.371 15.44 84.075 15.696 84.907 15.696C85.755 15.696 86.379 15.512 86.779 15.144C87.179 14.776 87.483 14.368 87.691 13.92L90.163 15.216C89.939 15.632 89.611 16.088 89.179 16.584C88.763 17.064 88.203 17.48 87.499 17.832C86.795 18.168 85.899 18.336 84.811 18.336ZM81.907 10.68H87.475C87.411 9.992 87.131 9.44 86.635 9.024C86.155 8.608 85.523 8.4 84.739 8.4C83.923 8.4 83.275 8.608 82.795 9.024C82.315 9.44 82.019 9.992 81.907 10.68Z" fill="#A9C7FF"/>
<path d="M13.75 0C14.5172 0 15.2672 0.054078 16 0.162109V4.19629C15.3134 3.89962 14.5638 3.75 13.75 3.75C12.1875 3.75 10.8594 4.29688 9.76562 5.39062C8.67188 6.48438 8.125 7.8125 8.125 9.375C8.125 10.9375 8.67188 12.2656 9.76562 13.3594C10.8594 14.4531 12.1875 15 13.75 15C14.5639 15 15.3133 14.8495 16 14.5527V18.5869C15.2672 18.695 14.5173 18.75 13.75 18.75C10.7083 18.75 7.9375 17.901 5.4375 16.2031C2.9375 14.5052 1.125 12.2292 0 9.375C1.125 6.52083 2.9375 4.24479 5.4375 2.54688C7.9375 0.848958 10.7083 0 13.75 0Z" fill="#A9C7FF"/>
<path d="M13.75 6C14.6217 6 15.3714 6.28417 16 6.85156V11.8975C15.3713 12.4651 14.622 12.75 13.75 12.75C12.8125 12.75 12.0156 12.4219 11.3594 11.7656C10.7031 11.1094 10.375 10.3125 10.375 9.375C10.375 8.4375 10.7031 7.64062 11.3594 6.98438C12.0156 6.32812 12.8125 6 13.75 6Z" fill="#A9C7FF"/>
</svg>
