<svg width="32" height="38" viewBox="0 0 16 19" fill="none" xmlns="http://www.w3.org/2000/svg">
<path d="M13.75 0C14.5172 0 15.2672 0.054078 16 0.162109V4.19629C15.3134 3.89962 14.5638 3.75 13.75 3.75C12.1875 3.75 10.8594 4.29688 9.76562 5.39062C8.67188 6.48438 8.125 7.8125 8.125 9.375C8.125 10.9375 8.67188 12.2656 9.76562 13.3594C10.8594 14.4531 12.1875 15 13.75 15C14.5639 15 15.3133 14.8495 16 14.5527V18.5869C15.2672 18.695 14.5173 18.75 13.75 18.75C10.7083 18.75 7.9375 17.901 5.4375 16.2031C2.9375 14.5052 1.125 12.2292 0 9.375C1.125 6.52083 2.9375 4.24479 5.4375 2.54688C7.9375 0.848958 10.7083 0 13.75 0ZM13.75 6C14.6217 6 15.3714 6.28417 16 6.85156V11.8975C15.3713 12.4651 14.622 12.75 13.75 12.75C12.8125 12.75 12.0156 12.4219 11.3594 11.7656C10.7031 11.1094 10.375 10.3125 10.375 9.375C10.375 8.4375 10.7031 7.64062 11.3594 6.98438C12.0156 6.32812 12.8125 6 13.75 6Z" fill="#A9C7FF"/>
</svg>